<svg xmlns="http://www.w3.org/2000/svg" xmlns:xlink="http://www.w3.org/1999/xlink" width="200" zoomAndPan="magnify" viewBox="0 0 375 374.999991" height="200" preserveAspectRatio="xMidYMid meet" version="1.0"><defs><filter x="0%" y="0%" width="100%" height="100%" id="8be63617e7"><feColorMatrix values="0 0 0 0 1 0 0 0 0 1 0 0 0 0 1 0 0 0 1 0" color-interpolation-filters="sRGB"/></filter><g/><clipPath id="0a0234b744"><path d="M 37.5 165 L 85 165 L 85 213 L 37.5 213 Z M 37.5 165 " clip-rule="nonzero"/></clipPath><mask id="c938da4768"><g filter="url(#8be63617e7)"><rect x="-37.5" width="450" fill="#000000" y="-37.499999" height="449.999989" fill-opacity="0.7"/></g></mask><clipPath id="00e6786a56"><path d="M 0.5 0.359375 L 47.960938 0.359375 L 47.960938 48 L 0.5 48 Z M 0.5 0.359375 " clip-rule="nonzero"/></clipPath><clipPath id="723fc8c8e3"><rect x="0" width="48" y="0" height="48"/></clipPath><clipPath id="5d6a623564"><path d="M 50 165 L 97.835938 165 L 97.835938 213 L 50 213 Z M 50 165 " clip-rule="nonzero"/></clipPath><mask id="c3a2ed9a15"><g filter="url(#8be63617e7)"><rect x="-37.5" width="450" fill="#000000" y="-37.499999" height="449.999989" fill-opacity="0.7"/></g></mask><clipPath id="e5b98cb7c6"><path d="M 0.640625 0.359375 L 47.835938 0.359375 L 47.835938 48 L 0.640625 48 Z M 0.640625 0.359375 " clip-rule="nonzero"/></clipPath><clipPath id="fe8fd95b32"><rect x="0" width="48" y="0" height="48"/></clipPath></defs><g clip-path="url(#0a0234b744)"><g mask="url(#c938da4768)"><g transform="matrix(1, 0, 0, 1, 37, 165)"><g clip-path="url(#723fc8c8e3)"><g clip-path="url(#00e6786a56)"><path fill="#085fce" d="M 47.765625 30.777344 C 47.765625 35.324219 45.996094 39.601562 42.78125 42.816406 C 39.460938 46.136719 35.101562 47.792969 30.742188 47.792969 C 26.382812 47.792969 22.023438 46.136719 18.703125 42.816406 L 5.492188 29.601562 C 2.277344 26.386719 0.503906 22.113281 0.503906 17.566406 C 0.503906 13.015625 2.277344 8.742188 5.492188 5.527344 C 12.128906 -1.109375 22.929688 -1.109375 29.566406 5.527344 L 42.78125 18.742188 C 45.996094 21.957031 47.765625 26.230469 47.765625 30.777344 Z M 47.765625 30.777344 " fill-opacity="1" fill-rule="nonzero"/></g></g></g></g></g><g clip-path="url(#5d6a623564)"><g mask="url(#c3a2ed9a15)"><g transform="matrix(1, 0, 0, 1, 50, 165)"><g clip-path="url(#fe8fd95b32)"><g clip-path="url(#e5b98cb7c6)"><path fill="#3de2ff" d="M 48.074219 17.566406 C 48.074219 22.113281 46.300781 26.386719 43.085938 29.601562 L 29.871094 42.816406 C 26.554688 46.136719 22.195312 47.792969 17.835938 47.792969 C 13.476562 47.792969 9.117188 46.136719 5.796875 42.816406 C 2.582031 39.601562 0.8125 35.324219 0.8125 30.777344 C 0.8125 26.230469 2.582031 21.957031 5.796875 18.742188 L 19.011719 5.527344 C 25.648438 -1.109375 36.449219 -1.109375 43.085938 5.527344 C 46.300781 8.742188 48.074219 13.015625 48.074219 17.566406 Z M 48.074219 17.566406 " fill-opacity="1" fill-rule="nonzero"/></g></g></g></g></g><g fill="#085fce" fill-opacity="1"><g transform="translate(108.186883, 201.06945)"><g><path d="M 10.4375 -24.546875 C 9.0625 -24.546875 8.007812 -24.203125 7.28125 -23.515625 C 6.5625 -22.828125 6.203125 -21.882812 6.203125 -20.6875 C 6.203125 -19.707031 6.539062 -18.820312 7.21875 -18.03125 C 7.894531 -17.25 8.90625 -16.628906 10.25 -16.171875 C 13.5625 -15.066406 15.859375 -13.835938 17.140625 -12.484375 C 18.421875 -11.140625 19.0625 -9.425781 19.0625 -7.34375 C 19.0625 -4.800781 18.285156 -2.878906 16.734375 -1.578125 C 15.179688 -0.273438 12.882812 0.375 9.84375 0.375 C 7.269531 0.375 4.894531 -0.191406 2.71875 -1.328125 L 2.71875 -5.25 C 4.894531 -3.757812 7.148438 -3.015625 9.484375 -3.015625 C 13.128906 -3.015625 14.953125 -4.457031 14.953125 -7.34375 C 14.953125 -8.445312 14.585938 -9.382812 13.859375 -10.15625 C 13.140625 -10.925781 11.9375 -11.617188 10.25 -12.234375 C 7.382812 -13.210938 5.3125 -14.378906 4.03125 -15.734375 C 2.757812 -17.097656 2.125 -18.75 2.125 -20.6875 C 2.125 -22.894531 2.828125 -24.640625 4.234375 -25.921875 C 5.648438 -27.203125 7.582031 -27.84375 10.03125 -27.84375 C 12.875 -27.84375 15.507812 -27.34375 17.9375 -26.34375 L 17.9375 -22.453125 C 15.4375 -23.847656 12.9375 -24.546875 10.4375 -24.546875 Z M 10.4375 -24.546875 "/></g></g></g><g fill="#000000" fill-opacity="1"><g transform="translate(128.671257, 201.06945)"><g><path d="M 1.390625 -9.78125 C 1.390625 -13.0625 2.179688 -15.578125 3.765625 -17.328125 C 5.347656 -19.078125 7.570312 -19.953125 10.4375 -19.953125 C 12.175781 -19.953125 13.988281 -19.753906 15.875 -19.359375 L 15.875 -15.984375 C 14.113281 -16.566406 12.398438 -16.859375 10.734375 -16.859375 C 8.992188 -16.859375 7.691406 -16.296875 6.828125 -15.171875 C 5.972656 -14.046875 5.546875 -12.25 5.546875 -9.78125 C 5.546875 -7.28125 6 -5.476562 6.90625 -4.375 C 7.8125 -3.269531 9.207031 -2.71875 11.09375 -2.71875 C 12.738281 -2.71875 14.394531 -3.0625 16.0625 -3.75 L 16.0625 -0.375 C 14.320312 0.125 12.566406 0.375 10.796875 0.375 C 7.785156 0.375 5.460938 -0.484375 3.828125 -2.203125 C 2.203125 -3.921875 1.390625 -6.445312 1.390625 -9.78125 Z M 1.390625 -9.78125 "/></g></g></g><g fill="#000000" fill-opacity="1"><g transform="translate(146.506991, 201.06945)"><g><path d="M 19.4375 -11.640625 L 19.4375 0 L 15.609375 0 L 15.609375 -10.90625 C 15.609375 -13.238281 15.332031 -14.796875 14.78125 -15.578125 C 14.238281 -16.359375 13.21875 -16.75 11.71875 -16.75 C 10.570312 -16.75 9.46875 -16.203125 8.40625 -15.109375 C 7.351562 -14.023438 6.828125 -12.867188 6.828125 -11.640625 L 6.828125 0 L 2.90625 0 L 2.90625 -28.21875 L 6.828125 -28.21875 L 6.828125 -17.125 L 6.90625 -17.125 C 8.644531 -19.007812 10.628906 -19.953125 12.859375 -19.953125 C 15.140625 -19.953125 16.804688 -19.3125 17.859375 -18.03125 C 18.910156 -16.757812 19.4375 -14.628906 19.4375 -11.640625 Z M 19.4375 -11.640625 "/></g></g></g><g fill="#000000" fill-opacity="1"><g transform="translate(167.722395, 201.06945)"><g><path d="M 3.828125 -17.3125 C 5.460938 -19.070312 7.722656 -19.953125 10.609375 -19.953125 C 13.503906 -19.953125 15.765625 -19.0625 17.390625 -17.28125 C 19.023438 -15.507812 19.84375 -13.003906 19.84375 -9.765625 C 19.84375 -6.535156 19.023438 -4.035156 17.390625 -2.265625 C 15.765625 -0.503906 13.503906 0.375 10.609375 0.375 C 7.722656 0.375 5.460938 -0.503906 3.828125 -2.265625 C 2.203125 -4.035156 1.390625 -6.535156 1.390625 -9.765625 C 1.390625 -13.003906 2.203125 -15.519531 3.828125 -17.3125 Z M 5.40625 -9.78125 C 5.40625 -5.019531 7.132812 -2.640625 10.59375 -2.640625 C 14.0625 -2.640625 15.796875 -5.019531 15.796875 -9.78125 C 15.796875 -14.550781 14.0625 -16.9375 10.59375 -16.9375 C 7.132812 -16.9375 5.40625 -14.550781 5.40625 -9.78125 Z M 5.40625 -9.78125 "/></g></g></g><g fill="#000000" fill-opacity="1"><g transform="translate(188.203086, 201.06945)"><g><path d="M 4.046875 0 L 4.046875 -28.21875 L 8.15625 -28.21875 L 8.15625 0 Z M 4.046875 0 "/></g></g></g><g fill="#000000" fill-opacity="1"><g transform="translate(199.64684, 201.06945)"><g><path d="M 9.65625 -19.953125 C 12.820312 -19.953125 14.992188 -19.390625 16.171875 -18.265625 C 17.347656 -17.140625 17.9375 -15.066406 17.9375 -12.046875 L 17.9375 0 L 14.25 0 L 14.1875 -2.828125 L 14.109375 -2.828125 C 12.660156 -0.691406 10.492188 0.375 7.609375 0.375 C 5.890625 0.375 4.484375 -0.175781 3.390625 -1.28125 C 2.304688 -2.382812 1.765625 -3.84375 1.765625 -5.65625 C 1.765625 -7.863281 2.601562 -9.570312 4.28125 -10.78125 C 5.957031 -12 8.507812 -12.609375 11.9375 -12.609375 L 14 -12.609375 L 14 -13.375 C 14 -14.695312 13.6875 -15.617188 13.0625 -16.140625 C 12.4375 -16.671875 11.300781 -16.9375 9.65625 -16.9375 C 7.695312 -16.9375 5.445312 -16.457031 2.90625 -15.5 L 2.90625 -18.8125 C 5.226562 -19.570312 7.476562 -19.953125 9.65625 -19.953125 Z M 14 -9.84375 L 11.9375 -9.84375 C 9.882812 -9.84375 8.335938 -9.5 7.296875 -8.8125 C 6.253906 -8.132812 5.734375 -7.207031 5.734375 -6.03125 C 5.734375 -5.09375 6.007812 -4.320312 6.5625 -3.71875 C 7.113281 -3.125 7.769531 -2.828125 8.53125 -2.828125 C 10.1875 -2.828125 11.507812 -3.347656 12.5 -4.390625 C 13.5 -5.429688 14 -6.859375 14 -8.671875 Z M 14 -9.84375 "/></g></g></g><g fill="#000000" fill-opacity="1"><g transform="translate(219.356088, 201.06945)"><g><path d="M 15.5 -16.34375 L 14.734375 -16.34375 C 12.035156 -16.34375 10.039062 -15.773438 8.75 -14.640625 C 7.46875 -13.503906 6.828125 -11.757812 6.828125 -9.40625 L 6.828125 0 L 2.71875 0 L 2.71875 -19.546875 L 6.65625 -19.546875 L 6.65625 -15.796875 L 6.71875 -15.796875 C 7.53125 -16.953125 8.648438 -17.863281 10.078125 -18.53125 C 11.515625 -19.207031 13.066406 -19.546875 14.734375 -19.546875 L 15.5 -19.546875 Z M 15.5 -16.34375 "/></g></g></g><g fill="#000000" fill-opacity="1"><g transform="translate(236.053016, 201.06945)"><g/></g></g><g fill="#3de2ff" fill-opacity="1"><g transform="translate(245.741561, 201.06945)"><g><path d="M 10.4375 -24.546875 C 9.0625 -24.546875 8.007812 -24.203125 7.28125 -23.515625 C 6.5625 -22.828125 6.203125 -21.882812 6.203125 -20.6875 C 6.203125 -19.707031 6.539062 -18.820312 7.21875 -18.03125 C 7.894531 -17.25 8.90625 -16.628906 10.25 -16.171875 C 13.5625 -15.066406 15.859375 -13.835938 17.140625 -12.484375 C 18.421875 -11.140625 19.0625 -9.425781 19.0625 -7.34375 C 19.0625 -4.800781 18.285156 -2.878906 16.734375 -1.578125 C 15.179688 -0.273438 12.882812 0.375 9.84375 0.375 C 7.269531 0.375 4.894531 -0.191406 2.71875 -1.328125 L 2.71875 -5.25 C 4.894531 -3.757812 7.148438 -3.015625 9.484375 -3.015625 C 13.128906 -3.015625 14.953125 -4.457031 14.953125 -7.34375 C 14.953125 -8.445312 14.585938 -9.382812 13.859375 -10.15625 C 13.140625 -10.925781 11.9375 -11.617188 10.25 -12.234375 C 7.382812 -13.210938 5.3125 -14.378906 4.03125 -15.734375 C 2.757812 -17.097656 2.125 -18.75 2.125 -20.6875 C 2.125 -22.894531 2.828125 -24.640625 4.234375 -25.921875 C 5.648438 -27.203125 7.582031 -27.84375 10.03125 -27.84375 C 12.875 -27.84375 15.507812 -27.34375 17.9375 -26.34375 L 17.9375 -22.453125 C 15.4375 -23.847656 12.9375 -24.546875 10.4375 -24.546875 Z M 10.4375 -24.546875 "/></g></g></g><g fill="#000000" fill-opacity="1"><g transform="translate(266.225935, 201.06945)"><g><path d="M 5.625 -19.546875 L 11.015625 -4.515625 L 11.09375 -4.515625 L 16.125 -19.546875 L 20.203125 -19.546875 L 12.859375 0 C 11.585938 3.40625 10.191406 5.703125 8.671875 6.890625 C 7.148438 8.078125 4.910156 8.671875 1.953125 8.671875 L 1.953125 5.578125 C 4.035156 5.578125 5.535156 5.222656 6.453125 4.515625 C 7.367188 3.804688 8.253906 2.300781 9.109375 0 L 1.390625 -19.546875 Z M 5.625 -19.546875 "/></g></g></g><g fill="#000000" fill-opacity="1"><g transform="translate(286.890306, 201.06945)"><g><path d="M 6.546875 -17.125 C 8.359375 -19.007812 10.398438 -19.953125 12.671875 -19.953125 C 14.953125 -19.953125 16.617188 -19.300781 17.671875 -18 C 18.722656 -16.707031 19.25 -14.585938 19.25 -11.640625 L 19.25 0 L 15.390625 0 L 15.390625 -11.09375 C 15.390625 -13.351562 15.113281 -14.890625 14.5625 -15.703125 C 14.007812 -16.523438 13 -16.9375 11.53125 -16.9375 C 10.363281 -16.9375 9.257812 -16.414062 8.21875 -15.375 C 7.175781 -14.332031 6.65625 -13.222656 6.65625 -12.046875 L 6.65625 0 L 2.71875 0 L 2.71875 -19.546875 L 6.390625 -19.546875 L 6.46875 -17.125 Z M 6.546875 -17.125 "/></g></g></g><g fill="#000000" fill-opacity="1"><g transform="translate(307.922032, 201.06945)"><g><path d="M 1.390625 -9.78125 C 1.390625 -13.0625 2.179688 -15.578125 3.765625 -17.328125 C 5.347656 -19.078125 7.570312 -19.953125 10.4375 -19.953125 C 12.175781 -19.953125 13.988281 -19.753906 15.875 -19.359375 L 15.875 -15.984375 C 14.113281 -16.566406 12.398438 -16.859375 10.734375 -16.859375 C 8.992188 -16.859375 7.691406 -16.296875 6.828125 -15.171875 C 5.972656 -14.046875 5.546875 -12.25 5.546875 -9.78125 C 5.546875 -7.28125 6 -5.476562 6.90625 -4.375 C 7.8125 -3.269531 9.207031 -2.71875 11.09375 -2.71875 C 12.738281 -2.71875 14.394531 -3.0625 16.0625 -3.75 L 16.0625 -0.375 C 14.320312 0.125 12.566406 0.375 10.796875 0.375 C 7.785156 0.375 5.460938 -0.484375 3.828125 -2.203125 C 2.203125 -3.921875 1.390625 -6.445312 1.390625 -9.78125 Z M 1.390625 -9.78125 "/></g></g></g></svg>